User Type,Username,Date,Text
[T],Tyr3ll,2012-10-27T11:15Z,"omplete name                  : C:Pulp_Fiction.(1994).(Q.Tarantino)-Remastered-hd.1080p[)(]AC3-5.1-US-FR+(US_sub).mkv
Format                         : Matroska
Format version                 : Version 2
File size                      : 11.9 GiB
Duration                       : 2h 34mn
Overall bit rate mode          : Variable
Overall bit rate               : 11.0 Mbps
Writing application            : Lavf51.12.1
Writing library                : Lavf51.12.1

Video
ID                             : 1
Format                         : AVC
Format/Info                    : Advanced Video Codec
Format profile                 : Baseline@L4.0
Format settings, CABAC         : No
Format settings, ReFrames      : 1 frame
Format settings, GOP           : M=1, N=12
Codec ID                       : V_MPEG4/ISO/AVC
Duration                       : 2h 34mn
Bit rate mode                  : Variable
Bit rate                       : 9 786 Kbps
Maximum bit rate               : 15.0 Mbps
Width                          : 1 920 pixels
Height                         : 1 080 pixels
Display aspect ratio           : 16:9
Frame rate mode                : Constant
Frame rate                     : 23.976 fps
Original frame rate            : 24.000 fps
Color space                    : YUV
Chroma subsampling             : 4:2:0
Bit depth                      : 8 bits
Scan type                      : Progressive
Bits/(Pixel*Frame)             : 0.197
Stream size                    : 10.6 GiB (89%)
Default                        : Yes
Forced                         : No

Audio #1
ID                             : 2
Format                         : AC-3
Format/Info                    : Audio Coding 3
Mode extension                 : CM (complete main)
Format settings, Endianness    : Big
Codec ID                       : A_AC3
Duration                       : 2h 34mn
Bit rate mode                  : Constant
Bit rate                       : 512 Kbps
Channel(s)                     : 6 channels
Channel positions              : Front: L C R, Side: L R, LFE
Sampling rate                  : 48.0 KHz
Bit depth                      : 16 bits
Compression mode               : Lossy
Stream size                    : 565 MiB (5%)
Default                        : Yes
Forced                         : No

Audio #2
ID                             : 4
Format                         : AC-3
Format/Info                    : Audio Coding 3
Mode extension                 : CM (complete main)
Format settings, Endianness    : Big
Codec ID                       : A_AC3
Duration                       : 2h 34mn
Bit rate mode                  : Constant
Bit rate                       : 512 Kbps
Channel(s)                     : 6 channels
Channel positions              : Front: L C R, Side: L R, LFE
Sampling rate                  : 48.0 KHz
Bit depth                      : 16 bits
Compression mode               : Lossy
Stream size                    : 565 MiB (5%)
Default                        : Yes
Forced                         : No

Text
ID                             : 3
Format                         : UTF-8
Codec ID                       : S_TEXT/UTF8
Codec ID/Info                  : UTF-8 Plain Text
Default                        : Yes
Forced                         : No
"
,tyl3rdurd3n,2012-10-27T17:37Z,"@Tyr3ll: Thanks for the upload, mate. Do you happen to have the commentary tracks? Would appreciate it a ton if you could upload those too in a separate torrent. Thanks again."
[T],Tyr3ll,2012-10-28T00:40Z,"I will then,ok mate."
[T],Tyr3ll,2012-10-29T12:11Z,"as usual,you can find few screenshots from this movie right here :

http://tyr3ll.minus.com/"
